999
dxfrw 0.6.3
  0
SECTION
  2
HEADER
  9
$ACADVER
  1
AC1021
  9
$DWGCODEPAGE
  3
ANSI_1252
  9
$INSBASE
 10
0
 20
0
 30
0
  9
$EXTMIN
 10
0
 20
-2
 30
0
  9
$EXTMAX
 10
5.888972745734183
 20
3.899999999999999
 30
0
  9
$LIMMIN
 10
0
 20
0
  9
$LIMMAX
 10
420
 20
297
  9
$ORTHOMODE
 70
    0
  9
$REGENMODE
 70
    1
  9
$FILLMODE
 70
    1
  9
$QTEXTMODE
 70
    0
  9
$MIRRTEXT
 70
    0
  9
$LTSCALE
 40
1
  9
$ATTMODE
 70
    0
  9
$TEXTSIZE
 40
2.5
  9
$TRACEWID
 40
15.68
  9
$TEXTSTYLE
  7
STANDARD
  9
$CLAYER
  8
2 prize
  9
$CELTYPE
  6
BYLAYER
  9
$CECOLOR
 62
  256
  9
$CELTSCALE
 40
1
  9
$DISPSILH
 70
    0
  9
$DIMSCALE
 40
2.5
  9
$DIMASZ
 40
2.5
  9
$DIMEXO
 40
0.0625
  9
$DIMDLI
 40
3.75
  9
$DIMRND
 40
0
  9
$DIMDLE
 40
0
  9
$DIMEXE
 40
1.25
  9
$DIMTP
 40
0
  9
$DIMTM
 40
0
  9
$DIMTXT
 40
2.5
  9
$DIMCEN
 40
2.5
  9
$DIMTSZ
 40
0
  9
$DIMTOL
 70
    0
  9
$DIMLIM
 70
    0
  9
$DIMTIH
 70
    0
  9
$DIMTOH
 70
    0
  9
$DIMSE1
 70
    0
  9
$DIMSE2
 70
    0
  9
$DIMTAD
 70
    1
  9
$DIMZIN
 70
    8
  9
$DIMBLK
  1

  9
$DIMASO
 70
    1
  9
$DIMSHO
 70
    1
  9
$DIMPOST
  1

  9
$DIMAPOST
  1

  9
$DIMALT
 70
    0
  9
$DIMALTD
 70
    3
  9
$DIMALTF
 40
0.03937
  9
$DIMLFAC
 40
1
  9
$DIMTOFL
 70
    1
  9
$DIMTVP
 40
0
  9
$DIMTIX
 70
    0
  9
$DIMSOXD
 70
    0
  9
$DIMSAH
 70
    0
  9
$DIMBLK1
  1

  9
$DIMBLK2
  1

  9
$DIMSTYLE
  2
STANDARD
  9
$DIMCLRD
 70
    0
  9
$DIMCLRE
 70
    0
  9
$DIMCLRT
 70
    0
  9
$DIMTFAC
 40
1
  9
$DIMGAP
 40
0.625
  9
$DIMJUST
 70
    0
  9
$DIMSD1
 70
    0
  9
$DIMSD2
 70
    0
  9
$DIMTOLJ
 70
    0
  9
$DIMTZIN
 70
    8
  9
$DIMALTZ
 70
    0
  9
$DIMALTTZ
 70
    0
  9
$DIMUPT
 70
    0
  9
$DIMDEC
 70
    2
  9
$DIMTDEC
 70
    2
  9
$DIMALTU
 70
    2
  9
$DIMALTTD
 70
    3
  9
$DIMTXSTY
  7
STANDARD
  9
$DIMAUNIT
 70
    0
  9
$DIMADEC
 70
    0
  9
$DIMALTRND
 40
0
  9
$DIMAZIN
 70
    0
  9
$DIMDSEP
 70
   44
  9
$DIMATFIT
 70
    3
  9
$DIMFRAC
 70
    0
  9
$DIMLDRBLK
  1
STANDARD
  9
$DIMLUNIT
 70
    2
  9
$DIMLWD
 70
   -2
  9
$DIMLWE
 70
   -2
  9
$DIMTMOVE
 70
    0
  9
$DIMFXL
 40
1
  9
$DIMFXLON
 70
    0
  9
$DIMJOGANG
 40
0.7854
  9
$DIMTFILL
 70
    0
  9
$DIMTFILLCLR
 70
    0
  9
$DIMARCSYM
 70
    0
  9
$DIMLTYPE
  6

  9
$DIMLTEX1
  6

  9
$DIMLTEX2
  6

  9
$LUNITS
 70
    2
  9
$LUPREC
 70
    4
  9
$SKETCHINC
 40
1
  9
$FILLETRAD
 40
0
  9
$AUNITS
 70
    0
  9
$AUPREC
 70
    2
  9
$MENU
  1
.
  9
$ELEVATION
 40
0
  9
$PELEVATION
 40
0
  9
$THICKNESS
 40
0
  9
$LIMCHECK
 70
    0
  9
$CHAMFERA
 40
0
  9
$CHAMFERB
 40
0
  9
$CHAMFERC
 40
0
  9
$CHAMFERD
 40
0
  9
$SKPOLY
 70
    0
  9
$USRTIMER
 70
    1
  9
$ANGBASE
 50
0
  9
$ANGDIR
 70
    0
  9
$PDMODE
 70
   34
  9
$PDSIZE
 40
0
  9
$PLINEWID
 40
0
  9
$SPLFRAME
 70
    0
  9
$SPLINETYPE
 70
    2
  9
$SPLINESEGS
 70
    8
  9
$HANDSEED
  5
20000
  9
$SURFTAB1
 70
    6
  9
$SURFTAB2
 70
    6
  9
$SURFTYPE
 70
    6
  9
$SURFU
 70
    6
  9
$SURFV
 70
    6
  9
$UCSBASE
  2

  9
$UCSNAME
  2

  9
$UCSORG
 10
0
 20
0
 30
0
  9
$UCSXDIR
 10
1
 20
0
 30
0
  9
$UCSYDIR
 10
0
 20
1
 30
0
  9
$UCSORTHOREF
  2

  9
$UCSORTHOVIEW
 70
    0
  9
$UCSORGTOP
 10
0
 20
0
 30
0
  9
$UCSORGBOTTOM
 10
0
 20
0
 30
0
  9
$UCSORGLEFT
 10
0
 20
0
 30
0
  9
$UCSORGRIGHT
 10
0
 20
0
 30
0
  9
$UCSORGFRONT
 10
0
 20
0
 30
0
  9
$UCSORGBACK
 10
0
 20
0
 30
0
  9
$PUCSBASE
  2

  9
$PUCSNAME
  2

  9
$PUCSORG
 10
0
 20
0
 30
0
  9
$PUCSXDIR
 10
1
 20
0
 30
0
  9
$PUCSYDIR
 10
0
 20
1
 30
0
  9
$PUCSORTHOREF
  2

  9
$PUCSORTHOVIEW
 70
    0
  9
$PUCSORGTOP
 10
0
 20
0
 30
0
  9
$PUCSORGBOTTOM
 10
0
 20
0
 30
0
  9
$PUCSORGLEFT
 10
0
 20
0
 30
0
  9
$PUCSORGRIGHT
 10
0
 20
0
 30
0
  9
$PUCSORGFRONT
 10
0
 20
0
 30
0
  9
$PUCSORGBACK
 10
0
 20
0
 30
0
  9
$USERI1
 70
    0
  9
$USERI2
 70
    0
  9
$USERI3
 70
    0
  9
$USERI4
 70
    0
  9
$USERI5
 70
    0
  9
$USERR1
 40
0
  9
$USERR2
 40
0
  9
$USERR3
 40
0
  9
$USERR4
 40
0
  9
$USERR5
 40
0
  9
$WORLDVIEW
 70
    1
  9
$SHADEDGE
 70
    3
  9
$SHADEDIF
 70
   70
  9
$TILEMODE
 70
    1
  9
$MAXACTVP
 70
   64
  9
$PINSBASE
 10
0
 20
0
 30
0
  9
$PLIMCHECK
 70
    0
  9
$PEXTMIN
 10
0
 20
0
 30
0
  9
$PEXTMAX
 10
0
 20
0
 30
0
  9
$PLIMMIN
 10
0
 20
0
  9
$PLIMMAX
 10
297
 20
210
  9
$UNITMODE
 70
    0
  9
$VISRETAIN
 70
    1
  9
$PLINEGEN
 70
    0
  9
$PSLTSCALE
 70
    1
  9
$TREEDEPTH
 70
 3020
  9
$CMLSTYLE
  2
Standard
  9
$CMLJUST
 70
    0
  9
$CMLSCALE
 40
20
  9
$PROXYGRAPHICS
 70
    1
  9
$MEASUREMENT
 70
    1
  9
$CELWEIGHT
370
   -1
  9
$ENDCAPS
280
    0
  9
$JOINSTYLE
280
    0
  9
$LWDISPLAY
290
    0
  9
$INSUNITS
 70
    0
  9
$HYPERLINKBASE
  1

  9
$STYLESHEET
  1

  9
$XEDIT
290
    1
  9
$CEPSNTYPE
380
    0
  9
$PSTYLEMODE
290
    1
  9
$EXTNAMES
290
    1
  9
$PSVPSCALE
 40
0
  9
$OLESTARTUP
290
    0
  9
$SORTENTS
280
  127
  9
$INDEXCTL
280
    0
  9
$HIDETEXT
280
    1
  9
$XCLIPFRAME
290
    0
  9
$HALOGAP
280
    0
  9
$OBSCOLOR
 70
  257
  9
$OBSLTYPE
280
    0
  9
$INTERSECTIONDISPLAY
280
    0
  9
$INTERSECTIONCOLOR
 70
  257
  9
$DIMASSOC
280
    1
  9
$PROJECTNAME
  1

  9
$CAMERADISPLAY
290
    0
  9
$LENSLENGTH
 40
50
  9
$CAMERAHEIGHT
 40
0
  9
$STEPSPERSEC
 40
2
  9
$STEPSIZE
 40
50
  9
$3DDWFPREC
 40
2
  9
$PSOLWIDTH
 40
5
  9
$PSOLHEIGHT
 40
80
  9
$LOFTANG1
 40
1.570796326794897
  9
$LOFTANG2
 40
1.570796326794897
  9
$LOFTMAG1
 40
0
  9
$LOFTMAG2
 40
0
  9
$LOFTPARAM
 70
    7
  9
$LOFTNORMALS
280
    1
  9
$LATITUDE
 40
1
  9
$LONGITUDE
 40
1
  9
$NORTHDIRECTION
 40
0
  9
$TIMEZONE
 70
-8000
  9
$LIGHTGLYPHDISPLAY
280
    1
  9
$TILEMODELIGHTSYNCH
280
    1
  9
$SOLIDHIST
280
    1
  9
$SHOWHIST
280
    1
  9
$DWFFRAME
280
    2
  9
$DGNFRAME
280
    0
  9
$REALWORLDSCALE
290
    1
  9
$INTERFERECOLOR
 62
    1
  9
$CSHADOW
280
    0
  9
$SHADOWPLANELOCATION
 40
0
  0
ENDSEC
  0
SECTION
  2
CLASSES
  0
ENDSEC
  0
SECTION
  2
TABLES
  0
TABLE
  2
VPORT
  5
8
330
0
100
AcDbSymbolTable
 70
    1
  0
VPORT
  5
31
330
2
100
AcDbSymbolTableRecord
100
AcDbViewportTableRecord
  2
*ACTIVE
 70
    0
 10
0
 20
0
 11
1
 21
1
 12
3.255355192478225
 22
2.038683703754297
 13
0
 23
0
 14
10
 24
10
 15
10
 25
10
 16
0
 26
0
 36
1
 17
0
 27
0
 37
0
 40
6.05766956189994
 41
1.323053199691596
 42
50
 43
0
 44
0
 50
0
 51
0
 71
    0
 72
  100
 73
    1
 74
    3
 75
    0
 76
    1
 77
    1
 78
    0
281
    0
 65
    1
110
0
120
0
130
0
111
1
121
0
131
0
112
0
122
1
132
0
 79
    0
146
0
348
10020
 60
    7
 61
    5
292
1
282
    1
141
0
142
0
 63
  250
421
3358443
  0
ENDTAB
  0
TABLE
  2
LTYPE
  5
5
330
0
100
AcDbSymbolTable
 70
    4
  0
LTYPE
  5
14
330
5
100
AcDbSymbolTableRecord
100
AcDbLinetypeTableRecord
  2
ByBlock
 70
    0
  3

 72
   65
 73
    0
 40
0
  0
LTYPE
  5
15
330
5
100
AcDbSymbolTableRecord
100
AcDbLinetypeTableRecord
  2
ByLayer
 70
    0
  3

 72
   65
 73
    0
 40
0
  0
LTYPE
  5
16
330
5
100
AcDbSymbolTableRecord
100
AcDbLinetypeTableRecord
  2
Continuous
 70
    0
  3
Solid line
 72
   65
 73
    0
 40
0
  0
LTYPE
  5
32
330
5
100
AcDbSymbolTableRecord
100
AcDbLinetypeTableRecord
  2
DOT
 70
    0
  3
Dot . . . . . . . . . . . . . . . . . . . . . .
 72
   65
 73
    2
 40
6.35
 49
0
 74
    0
 49
-6.35
 74
    0
  0
LTYPE
  5
33
330
5
100
AcDbSymbolTableRecord
100
AcDbLinetypeTableRecord
  2
DOTTINY
 70
    0
  3
Dot (.15x) .....................................
 72
   65
 73
    2
 40
0.9525
 49
0
 74
    0
 49
-0.9525
 74
    0
  0
LTYPE
  5
34
330
5
100
AcDbSymbolTableRecord
100
AcDbLinetypeTableRecord
  2
DOT2
 70
    0
  3
Dot (.5x) .....................................
 72
   65
 73
    2
 40
3.175
 49
0
 74
    0
 49
-3.175
 74
    0
  0
LTYPE
  5
35
330
5
100
AcDbSymbolTableRecord
100
AcDbLinetypeTableRecord
  2
DOTX2
 70
    0
  3
Dot (2x) .  .  .  .  .  .  .  .  .  .  .  .  .
 72
   65
 73
    2
 40
12.7
 49
0
 74
    0
 49
-12.7
 74
    0
  0
LTYPE
  5
36
330
5
100
AcDbSymbolTableRecord
100
AcDbLinetypeTableRecord
  2
DASHED
 70
    0
  3
Dashed _ _ _ _ _ _ _ _ _ _ _ _ _ _ _ _ _
 72
   65
 73
    2
 40
19.05
 49
12.7
 74
    0
 49
-6.35
 74
    0
  0
LTYPE
  5
37
330
5
100
AcDbSymbolTableRecord
100
AcDbLinetypeTableRecord
  2
DASHEDTINY
 70
    0
  3
Dashed (.15x) _ _ _ _ _ _ _ _ _ _ _ _ _ _ _ _ _
 72
   65
 73
    2
 40
2.8575
 49
1.905
 74
    0
 49
-0.9525
 74
    0
  0
LTYPE
  5
38
330
5
100
AcDbSymbolTableRecord
100
AcDbLinetypeTableRecord
  2
DASHED2
 70
    0
  3
Dashed (.5x) _ _ _ _ _ _ _ _ _ _ _ _ _ _ _ _ _
 72
   65
 73
    2
 40
9.524999999999999
 49
6.35
 74
    0
 49
-3.175
 74
    0
  0
LTYPE
  5
39
330
5
100
AcDbSymbolTableRecord
100
AcDbLinetypeTableRecord
  2
DASHEDX2
 70
    0
  3
Dashed (2x) ____  ____  ____  ____  ____  ___
 72
   65
 73
    2
 40
38.09999999999999
 49
25.4
 74
    0
 49
-12.7
 74
    0
  0
LTYPE
  5
3A
330
5
100
AcDbSymbolTableRecord
100
AcDbLinetypeTableRecord
  2
DASHDOT
 70
    0
  3
Dash dot __ . __ . __ . __ . __ . __ . __ . __
 72
   65
 73
    4
 40
25.4
 49
12.7
 74
    0
 49
-6.35
 74
    0
 49
0
 74
    0
 49
-6.35
 74
    0
  0
LTYPE
  5
3B
330
5
100
AcDbSymbolTableRecord
100
AcDbLinetypeTableRecord
  2
DASHDOTTINY
 70
    0
  3
Dash dot (.15x) _._._._._._._._._._._._._._._.
 72
   65
 73
    4
 40
3.81
 49
1.905
 74
    0
 49
-0.9525
 74
    0
 49
0
 74
    0
 49
-0.9525
 74
    0
  0
LTYPE
  5
3C
330
5
100
AcDbSymbolTableRecord
100
AcDbLinetypeTableRecord
  2
DASHDOT2
 70
    0
  3
Dash dot (.5x) _._._._._._._._._._._._._._._.
 72
   65
 73
    4
 40
12.7
 49
6.35
 74
    0
 49
-3.175
 74
    0
 49
0
 74
    0
 49
-3.175
 74
    0
  0
LTYPE
  5
3D
330
5
100
AcDbSymbolTableRecord
100
AcDbLinetypeTableRecord
  2
DASHDOTX2
 70
    0
  3
Dash dot (2x) ____  .  ____  .  ____  .  ___
 72
   65
 73
    4
 40
50.8
 49
25.4
 74
    0
 49
-12.7
 74
    0
 49
0
 74
    0
 49
-12.7
 74
    0
  0
LTYPE
  5
3E
330
5
100
AcDbSymbolTableRecord
100
AcDbLinetypeTableRecord
  2
DIVIDE
 70
    0
  3
Divide ____ . . ____ . . ____ . . ____ . . ____
 72
   65
 73
    6
 40
31.75
 49
12.7
 74
    0
 49
-6.35
 74
    0
 49
0
 74
    0
 49
-6.35
 74
    0
 49
0
 74
    0
 49
-6.35
 74
    0
  0
LTYPE
  5
3F
330
5
100
AcDbSymbolTableRecord
100
AcDbLinetypeTableRecord
  2
DIVIDETINY
 70
    0
  3
Divide (.15x) __..__..__..__..__..__..__..__.._
 72
   65
 73
    6
 40
4.7625
 49
1.905
 74
    0
 49
-0.9525
 74
    0
 49
0
 74
    0
 49
-0.9525
 74
    0
 49
0
 74
    0
 49
-0.9525
 74
    0
  0
LTYPE
  5
40
330
5
100
AcDbSymbolTableRecord
100
AcDbLinetypeTableRecord
  2
DIVIDE2
 70
    0
  3
Divide (.5x) __..__..__..__..__..__..__..__.._
 72
   65
 73
    6
 40
15.875
 49
6.35
 74
    0
 49
-3.175
 74
    0
 49
0
 74
    0
 49
-3.175
 74
    0
 49
0
 74
    0
 49
-3.175
 74
    0
  0
LTYPE
  5
41
330
5
100
AcDbSymbolTableRecord
100
AcDbLinetypeTableRecord
  2
DIVIDEX2
 70
    0
  3
Divide (2x) ________  .  .  ________  .  .  _
 72
   65
 73
    6
 40
63.5
 49
25.4
 74
    0
 49
-12.7
 74
    0
 49
0
 74
    0
 49
-12.7
 74
    0
 49
0
 74
    0
 49
-12.7
 74
    0
  0
LTYPE
  5
42
330
5
100
AcDbSymbolTableRecord
100
AcDbLinetypeTableRecord
  2
BORDER
 70
    0
  3
Border __ __ . __ __ . __ __ . __ __ . __ __ .
 72
   65
 73
    6
 40
44.45
 49
12.7
 74
    0
 49
-6.35
 74
    0
 49
12.7
 74
    0
 49
-6.35
 74
    0
 49
0
 74
    0
 49
-6.35
 74
    0
  0
LTYPE
  5
43
330
5
100
AcDbSymbolTableRecord
100
AcDbLinetypeTableRecord
  2
BORDERTINY
 70
    0
  3
Border (.15x) __.__.__.__.__.__.__.__.__.__.__.
 72
   65
 73
    6
 40
6.6675
 49
1.905
 74
    0
 49
-0.9525
 74
    0
 49
1.905
 74
    0
 49
-0.9525
 74
    0
 49
0
 74
    0
 49
-0.9525
 74
    0
  0
LTYPE
  5
44
330
5
100
AcDbSymbolTableRecord
100
AcDbLinetypeTableRecord
  2
BORDER2
 70
    0
  3
Border (.5x) __.__.__.__.__.__.__.__.__.__.__.
 72
   65
 73
    6
 40
22.225
 49
6.35
 74
    0
 49
-3.175
 74
    0
 49
6.35
 74
    0
 49
-3.175
 74
    0
 49
0
 74
    0
 49
-3.175
 74
    0
  0
LTYPE
  5
45
330
5
100
AcDbSymbolTableRecord
100
AcDbLinetypeTableRecord
  2
BORDERX2
 70
    0
  3
Border (2x) ____  ____  .  ____  ____  .  ___
 72
   65
 73
    6
 40
88.89999999999999
 49
25.4
 74
    0
 49
-12.7
 74
    0
 49
25.4
 74
    0
 49
-12.7
 74
    0
 49
0
 74
    0
 49
-12.7
 74
    0
  0
LTYPE
  5
46
330
5
100
AcDbSymbolTableRecord
100
AcDbLinetypeTableRecord
  2
CENTER
 70
    0
  3
Center ____ _ ____ _ ____ _ ____ _ ____ _ ____
 72
   65
 73
    4
 40
50.8
 49
31.75
 74
    0
 49
-6.35
 74
    0
 49
6.35
 74
    0
 49
-6.35
 74
    0
  0
LTYPE
  5
47
330
5
100
AcDbSymbolTableRecord
100
AcDbLinetypeTableRecord
  2
CENTERTINY
 70
    0
  3
Center (.15x) ___ _ ___ _ ___ _ ___ _ ___ _ ___
 72
   65
 73
    4
 40
7.619999999999999
 49
4.7625
 74
    0
 49
-0.9525
 74
    0
 49
0.9525
 74
    0
 49
-0.9525
 74
    0
  0
LTYPE
  5
48
330
5
100
AcDbSymbolTableRecord
100
AcDbLinetypeTableRecord
  2
CENTER2
 70
    0
  3
Center (.5x) ___ _ ___ _ ___ _ ___ _ ___ _ ___
 72
   65
 73
    4
 40
28.575
 49
19.05
 74
    0
 49
-3.175
 74
    0
 49
3.175
 74
    0
 49
-3.175
 74
    0
  0
LTYPE
  5
49
330
5
100
AcDbSymbolTableRecord
100
AcDbLinetypeTableRecord
  2
CENTERX2
 70
    0
  3
Center (2x) ________  __  ________  __  _____
 72
   65
 73
    4
 40
101.6
 49
63.5
 74
    0
 49
-12.7
 74
    0
 49
12.7
 74
    0
 49
-12.7
 74
    0
  0
ENDTAB
  0
TABLE
  2
LAYER
  5
2
330
0
100
AcDbSymbolTable
 70
    1
  0
LAYER
  5
10
330
2
100
AcDbSymbolTableRecord
100
AcDbLayerTableRecord
  2
0
 70
    0
 62
    7
  6
CONTINUOUS
370
    0
390
F
  0
LAYER
  5
4A
330
2
100
AcDbSymbolTableRecord
100
AcDbLayerTableRecord
  2
0 ref
 70
    0
 62
    7
  6
CONTINUOUS
370
    0
390
F
  0
LAYER
  5
4B
330
2
100
AcDbSymbolTableRecord
100
AcDbLayerTableRecord
  2
1 cab
 70
    0
 62
    6
  6
CONTINUOUS
370
    0
390
F
  0
LAYER
  5
4C
330
2
100
AcDbSymbolTableRecord
100
AcDbLayerTableRecord
  2
0.1 ref 2
 70
    1
 62
    7
  6
CONTINUOUS
370
    0
390
F
  0
LAYER
  5
4D
330
2
100
AcDbSymbolTableRecord
100
AcDbLayerTableRecord
  2
2 prize
 70
    0
 62
    1
  6
CONTINUOUS
370
    0
390
F
  0
ENDTAB
  0
TABLE
  2
STYLE
  5
3
330
0
100
AcDbSymbolTable
 70
    3
  0
STYLE
  5
4E
330
2
100
AcDbSymbolTableRecord
100
AcDbTextStyleTableRecord
  2
Standard
 70
    0
 40
0
 41
1
 50
0
 71
    0
 42
1
  3
txt
  4

  0
ENDTAB
  0
TABLE
  2
VIEW
  5
6
330
0
100
AcDbSymbolTable
 70
    0
  0
ENDTAB
  0
TABLE
  2
UCS
  5
7
330
0
100
AcDbSymbolTable
 70
    0
  0
ENDTAB
  0
TABLE
  2
APPID
  5
9
330
0
100
AcDbSymbolTable
 70
    1
  0
APPID
  5
12
330
9
100
AcDbSymbolTableRecord
100
AcDbRegAppTableRecord
  2
ACAD
 70
    0
  0
APPID
  5
4F
330
9
100
AcDbSymbolTableRecord
100
AcDbRegAppTableRecord
  2
LibreCad
 70
    0
  0
ENDTAB
  0
TABLE
  2
DIMSTYLE
  5
A
330
0
100
AcDbSymbolTable
 70
    1
100
AcDbDimStyleTable
 71
    1
  0
DIMSTYLE
105
50
330
A
100
AcDbSymbolTableRecord
100
AcDbDimStyleTableRecord
  2
Standard
 70
    0
 40
1
 41
0.1
 42
0.0625
 43
0.38
 44
0.125
 45
0
 46
0
 47
0
 48
0
 49
0.1
140
0.1
141
0.09
142
0
143
25.4
144
1
145
0
146
1
147
0.0625
148
0
 71
    0
 72
    0
 73
    0
 74
    1
 75
    0
 76
    0
 77
    0
 78
    1
 79
    0
170
    0
171
    2
172
    0
173
    0
174
    0
175
    0
176
    0
177
    0
178
    0
179
    2
271
    4
272
    4
273
    2
274
    2
275
    0
276
    0
277
    2
278
    0
279
    0
280
    0
281
    0
282
    0
283
    1
284
    0
285
    0
286
    0
288
    0
289
    3
340
standard
341

371
   -2
372
   -2
  0
ENDTAB
  0
TABLE
  2
BLOCK_RECORD
  5
1
330
0
100
AcDbSymbolTable
 70
    2
  0
BLOCK_RECORD
  5
1F
330
1
100
AcDbSymbolTableRecord
100
AcDbBlockTableRecord
  2
*Model_Space
 70
    0
280
    1
281
    0
  0
BLOCK_RECORD
  5
1E
330
1
100
AcDbSymbolTableRecord
100
AcDbBlockTableRecord
  2
*Paper_Space
 70
    0
280
    1
281
    0
  0
BLOCK_RECORD
  5
51
330
1
100
AcDbSymbolTableRecord
100
AcDbBlockTableRecord
  2
*D3
 70
    0
280
    1
281
    0
  0
BLOCK_RECORD
  5
54
330
1
100
AcDbSymbolTableRecord
100
AcDbBlockTableRecord
  2
*D4
 70
    0
280
    1
281
    0
  0
BLOCK_RECORD
  5
57
330
1
100
AcDbSymbolTableRecord
100
AcDbBlockTableRecord
  2
*D2
 70
    0
280
    1
281
    0
  0
BLOCK_RECORD
  5
5A
330
1
100
AcDbSymbolTableRecord
100
AcDbBlockTableRecord
  2
*D6
 70
    0
280
    1
281
    0
  0
BLOCK_RECORD
  5
5D
330
1
100
AcDbSymbolTableRecord
100
AcDbBlockTableRecord
  2
*D5
 70
    0
280
    1
281
    0
  0
BLOCK_RECORD
  5
60
330
1
100
AcDbSymbolTableRecord
100
AcDbBlockTableRecord
  2
*D7
 70
    0
280
    1
281
    0
  0
BLOCK_RECORD
  5
63
330
1
100
AcDbSymbolTableRecord
100
AcDbBlockTableRecord
  2
*D1
 70
    0
280
    1
281
    0
  0
ENDTAB
  0
ENDSEC
  0
SECTION
  2
BLOCKS
  0
BLOCK
  5
20
330
1F
100
AcDbEntity
  8
0
100
AcDbBlockBegin
  2
*Model_Space
 70
    0
 10
0
 20
0
 30
0
  3
*Model_Space
  1

  0
ENDBLK
  5
21
330
1F
100
AcDbEntity
  8
0
100
AcDbBlockEnd
  0
BLOCK
  5
1C
330
1B
100
AcDbEntity
  8
0
100
AcDbBlockBegin
  2
*Paper_Space
 70
    0
 10
0
 20
0
 30
0
  3
*Paper_Space
  1

  0
ENDBLK
  5
1D
330
1F
100
AcDbEntity
  8
0
100
AcDbBlockEnd
  0
BLOCK
  5
52
330
51
100
AcDbEntity
  8
0
100
AcDbBlockBegin
  2
*D3
 70
    1
 10
0
 20
0
  3
*D3
  1

  0
LINE
  5
66
100
AcDbEntity
  8
2 prize
  6
ByBlock
 62
    0
370
   -2
100
AcDbLine
 10
4.974376833874055
 20
1.655873412263473
 11
4.81322302330639
 21
1.376746824526945
  0
LINE
  5
67
100
AcDbEntity
  8
2 prize
  6
ByBlock
 62
    0
370
   -2
100
AcDbLine
 10
2.393621130596428
 20
3.145873412263473
 11
2.232467320028762
 21
2.866746824526945
  0
LINE
  5
68
100
AcDbEntity
  8
2 prize
  6
ByBlock
 62
    0
370
   -2
100
AcDbLine
 10
4.87572302330639
 20
1.484999999999999
 11
2.294967320028762
 21
2.975
  0
MTEXT
  5
69
100
AcDbEntity
  8
2 prize
  6
CONTINUOUS
 62
    0
370
   -2
100
AcDbMText
 10
3.641595171667576
 20
2.327427857925749
 30
0
 40
0.1
 41
0.3888888888888888
 71
    5
 72
    1
  1
2.9800
  7
standard
210
0
220
0
230
1
 50
330.0000000000001
 73
    2
 44
1
  0
SOLID
  5
6A
100
AcDbEntity
  8
2 prize
  6
ByBlock
 62
    0
370
   -2
100
AcDbTrace
 10
4.87572302330639
 20
1.484999999999999
 30
0
 11
4.780794789772489
 21
1.52057947644652
 31
0
 12
4.797446176083403
 22
1.549420523553479
 32
0
 13
4.797446176083403
 23
1.549420523553479
 33
0
  0
SOLID
  5
6B
100
AcDbEntity
  8
2 prize
  6
ByBlock
 62
    0
370
   -2
100
AcDbTrace
 10
2.294967320028762
 20
2.975
 30
0
 11
2.389895553562663
 21
2.939420523553479
 31
0
 12
2.373244167251749
 22
2.91057947644652
 32
0
 13
2.373244167251749
 23
2.91057947644652
 33
0
  0
ENDBLK
  5
53
330
51
100
AcDbEntity
  8
0
100
AcDbBlockEnd
  0
BLOCK
  5
55
330
54
100
AcDbEntity
  8
0
100
AcDbBlockBegin
  2
*D4
 70
    1
 10
0
 20
0
  3
*D4
  1

  0
LINE
  5
6C
100
AcDbEntity
  8
2 prize
  6
ByBlock
 62
    0
370
   -2
100
AcDbLine
 10
2.393621130596428
 20
1.345873412263472
 11
2.297419225312596
 21
1.179246824526945
  0
LINE
  5
6D
100
AcDbEntity
  8
2 prize
  6
ByBlock
 62
    0
370
   -2
100
AcDbLine
 10
4.974376833874055
 20
-0.1441265877365276
 11
4.878174928590223
 21
-0.310753175473055
  0
LINE
  5
6E
100
AcDbEntity
  8
2 prize
  6
ByBlock
 62
    0
370
   -2
100
AcDbLine
 10
2.359919225312596
 20
1.2875
 11
4.940674928590223
 21
-0.2025000000000001
  0
MTEXT
  5
6F
100
AcDbEntity
  8
2 prize
  6
CONTINUOUS
 62
    0
370
   -2
100
AcDbMText
 10
3.706547076951409
 20
0.6399278579257491
 30
0
 40
0.1
 41
0.3888888888888888
 71
    5
 72
    1
  1
2.9800
  7
standard
210
0
220
0
230
1
 50
330.0000000000001
 73
    2
 44
1
  0
SOLID
  5
70
100
AcDbEntity
  8
2 prize
  6
ByBlock
 62
    0
370
   -2
100
AcDbTrace
 10
2.359919225312596
 20
1.2875
 30
0
 11
2.454847458846496
 21
1.251920523553479
 31
0
 12
2.438196072535583
 22
1.22307947644652
 32
0
 13
2.438196072535583
 23
1.22307947644652
 33
0
  0
SOLID
  5
71
100
AcDbEntity
  8
2 prize
  6
ByBlock
 62
    0
370
   -2
100
AcDbTrace
 10
4.940674928590223
 20
-0.2025000000000001
 30
0
 11
4.845746695056322
 21
-0.1669205235534797
 31
0
 12
4.862398081367236
 22
-0.1380794764465205
 32
0
 13
4.862398081367236
 23
-0.1380794764465205
 33
0
  0
ENDBLK
  5
56
330
54
100
AcDbEntity
  8
0
100
AcDbBlockEnd
  0
BLOCK
  5
58
330
57
100
AcDbEntity
  8
0
100
AcDbBlockBegin
  2
*D2
 70
    1
 10
0
 20
0
  3
*D2
  1

  0
LINE
  5
72
100
AcDbEntity
  8
2 prize
  6
ByBlock
 62
    0
370
   -2
100
AcDbLine
 10
2.456121130596428
 20
2.354126587736527
 11
2.586964052031639
 21
2.580753175473054
  0
LINE
  5
73
100
AcDbEntity
  8
2 prize
  6
ByBlock
 62
    0
370
   -2
100
AcDbLine
 10
4.430659051224948
 20
1.214126587736527
 11
4.561501972660158
 21
1.440753175473055
  0
LINE
  5
74
100
AcDbEntity
  8
2 prize
  6
ByBlock
 62
    0
370
   -2
100
AcDbLine
 10
2.524464052031639
 20
2.4725
 11
4.499001972660158
 21
1.3325
  0
MTEXT
  5
75
100
AcDbEntity
  8
2 prize
  6
CONTINUOUS
 62
    0
370
   -2
100
AcDbMText
 10
3.567983012345898
 20
1.999927857925749
 30
0
 40
0.1
 41
0.3888888888888888
 71
    5
 72
    1
  1
2.2800
  7
standard
210
0
220
0
230
1
 50
329.9999999999999
 73
    2
 44
1
  0
SOLID
  5
76
100
AcDbEntity
  8
2 prize
  6
ByBlock
 62
    0
370
   -2
100
AcDbTrace
 10
2.524464052031639
 20
2.4725
 30
0
 11
2.619392285565539
 21
2.436920523553479
 31
0
 12
2.602740899254626
 22
2.40807947644652
 32
0
 13
2.602740899254626
 23
2.40807947644652
 33
0
  0
SOLID
  5
77
100
AcDbEntity
  8
2 prize
  6
ByBlock
 62
    0
370
   -2
100
AcDbTrace
 10
4.499001972660158
 20
1.3325
 30
0
 11
4.404073739126257
 21
1.36807947644652
 31
0
 12
4.420725125437172
 22
1.396920523553479
 32
0
 13
4.420725125437172
 23
1.396920523553479
 33
0
  0
ENDBLK
  5
59
330
57
100
AcDbEntity
  8
0
100
AcDbBlockEnd
  0
BLOCK
  5
5B
330
5A
100
AcDbEntity
  8
0
100
AcDbBlockBegin
  2
*D6
 70
    1
 10
0
 20
0
  3
*D6
  1

  0
LINE
  5
78
100
AcDbEntity
  8
2 prize
  6
ByBlock
 62
    0
370
   -2
100
AcDbLine
 10
1.111903532995459
 20
1.614126587736527
 11
0.9724003575224044
 21
1.855753175473055
  0
LINE
  5
79
100
AcDbEntity
  8
2 prize
  6
ByBlock
 62
    0
370
   -2
100
AcDbLine
 10
2.393621130596428
 20
2.354126587736527
 11
2.254117955123374
 21
2.595753175473055
  0
LINE
  5
7A
100
AcDbEntity
  8
2 prize
  6
ByBlock
 62
    0
370
   -2
100
AcDbLine
 10
1.034900357522404
 20
1.7475
 11
2.316617955123374
 21
2.4875
  0
MTEXT
  5
7B
100
AcDbEntity
  8
2 prize
  6
CONTINUOUS
 62
    0
370
   -2
100
AcDbMText
 10
1.619509156322889
 20
2.214927857925749
 30
0
 40
0.1
 41
0.3777777777777778
 71
    5
 72
    1
  1
1.4800
  7
standard
210
0
220
0
230
1
 50
29.99999999999999
 73
    2
 44
1
  0
SOLID
  5
7C
100
AcDbEntity
  8
2 prize
  6
ByBlock
 62
    0
370
   -2
100
AcDbTrace
 10
1.034900357522404
 20
1.7475
 30
0
 11
1.113177204745391
 21
1.81192052355348
 31
0
 12
1.129828591056305
 22
1.78307947644652
 32
0
 13
1.129828591056305
 23
1.78307947644652
 33
0
  0
SOLID
  5
7D
100
AcDbEntity
  8
2 prize
  6
ByBlock
 62
    0
370
   -2
100
AcDbTrace
 10
2.316617955123374
 20
2.4875
 30
0
 11
2.238341107900387
 21
2.42307947644652
 31
0
 12
2.221689721589473
 22
2.45192052355348
 32
0
 13
2.221689721589473
 23
2.45192052355348
 33
0
  0
ENDBLK
  5
5C
330
5A
100
AcDbEntity
  8
0
100
AcDbBlockEnd
  0
BLOCK
  5
5E
330
5D
100
AcDbEntity
  8
0
100
AcDbBlockBegin
  2
*D5
 70
    1
 10
0
 20
0
  3
*D5
  1

  0
LINE
  5
7E
100
AcDbEntity
  8
2 prize
  6
ByBlock
 62
    0
370
   -2
100
AcDbLine
 10
2.393621130596428
 20
1.454126587736527
 11
2.319069860407207
 21
1.583253175473055
  0
LINE
  5
7F
100
AcDbEntity
  8
2 prize
  6
ByBlock
 62
    0
370
   -2
100
AcDbLine
 10
1.111903532995459
 20
0.7141265877365273
 11
1.037352262806237
 21
0.8432531754730548
  0
LINE
  5
80
100
AcDbEntity
  8
2 prize
  6
ByBlock
 62
    0
370
   -2
100
AcDbLine
 10
2.381569860407207
 20
1.475
 11
1.099852262806237
 21
0.7349999999999999
  0
MTEXT
  5
81
100
AcDbEntity
  8
2 prize
  6
CONTINUOUS
 62
    0
370
   -2
100
AcDbMText
 10
1.684461061606722
 20
1.202427857925749
 30
0
 40
0.1
 41
0.3777777777777778
 71
    5
 72
    1
  1
1.4800
  7
standard
210
0
220
0
230
1
 50
29.99999999999996
 73
    2
 44
1
  0
SOLID
  5
82
100
AcDbEntity
  8
2 prize
  6
ByBlock
 62
    0
370
   -2
100
AcDbTrace
 10
2.381569860407207
 20
1.475
 30
0
 11
2.30329301318422
 21
1.41057947644652
 31
0
 12
2.286641626873306
 22
1.439420523553479
 32
0
 13
2.286641626873306
 23
1.439420523553479
 33
0
  0
SOLID
  5
83
100
AcDbEntity
  8
2 prize
  6
ByBlock
 62
    0
370
   -2
100
AcDbTrace
 10
1.099852262806237
 20
0.7349999999999999
 30
0
 11
1.178129110029224
 21
0.7994205235534795
 31
0
 12
1.194780496340138
 22
0.7705794764465201
 32
0
 13
1.194780496340138
 23
0.7705794764465201
 33
0
  0
ENDBLK
  5
5F
330
5D
100
AcDbEntity
  8
0
100
AcDbBlockEnd
  0
BLOCK
  5
61
330
60
100
AcDbEntity
  8
0
100
AcDbBlockBegin
  2
*D7
 70
    1
 10
0
 20
0
  3
*D7
  1

  0
LINE
  5
84
100
AcDbEntity
  8
2 prize
  6
ByBlock
 62
    0
370
   -2
100
AcDbLine
 10
2.393621130596428
 20
1.454126587736527
 11
2.263268590217985
 21
1.679903810567666
  0
LINE
  5
85
100
AcDbEntity
  8
2 prize
  6
ByBlock
 62
    0
370
   -2
100
AcDbLine
 10
0.419083209967908
 20
0.3141265877365274
 11
0.2887306695894642
 21
0.5399038105676659
  0
LINE
  5
86
100
AcDbEntity
  8
2 prize
  6
ByBlock
 62
    0
370
   -2
100
AcDbLine
 10
2.325768590217985
 20
1.571650635094611
 11
0.3512306695894641
 21
0.431650635094611
  0
MTEXT
  5
87
100
AcDbEntity
  8
2 prize
  6
CONTINUOUS
 62
    0
370
   -2
100
AcDbMText
 10
1.282249629903724
 20
1.09907849302036
 30
0
 40
0.1
 41
0.3888888888888888
 71
    5
 72
    1
  1
2.2800
  7
standard
210
0
220
0
230
1
 50
29.99999999999996
 73
    2
 44
1
  0
SOLID
  5
88
100
AcDbEntity
  8
2 prize
  6
ByBlock
 62
    0
370
   -2
100
AcDbTrace
 10
2.325768590217985
 20
1.571650635094611
 30
0
 11
2.247491742994998
 21
1.507230111541131
 31
0
 12
2.230840356684084
 22
1.53607115864809
 32
0
 13
2.230840356684084
 23
1.53607115864809
 33
0
  0
SOLID
  5
89
100
AcDbEntity
  8
2 prize
  6
ByBlock
 62
    0
370
   -2
100
AcDbTrace
 10
0.3512306695894641
 20
0.431650635094611
 30
0
 11
0.4295075168124513
 21
0.4960711586480906
 31
0
 12
0.4461589031233649
 22
0.4672301115411313
 32
0
 13
0.4461589031233649
 23
0.4672301115411313
 33
0
  0
ENDBLK
  5
62
330
60
100
AcDbEntity
  8
0
100
AcDbBlockEnd
  0
BLOCK
  5
64
330
63
100
AcDbEntity
  8
0
100
AcDbBlockBegin
  2
*D1
 70
    1
 10
0
 20
0
  3
*D1
  1

  0
LINE
  5
8A
100
AcDbEntity
  8
2 prize
  6
ByBlock
 62
    0
370
   -2
100
AcDbLine
 10
2.456121130596428
 20
2.354126587736527
 11
2.586964052031639
 21
2.580753175473054
  0
LINE
  5
8B
100
AcDbEntity
  8
2 prize
  6
ByBlock
 62
    0
370
   -2
100
AcDbLine
 10
2.837172308261581
 20
2.134126587736528
 11
2.968015229696792
 21
2.360753175473054
  0
LINE
  5
8C
100
AcDbEntity
  8
2 prize
  6
ByBlock
 62
    0
370
   -2
100
AcDbLine
 10
2.524464052031639
 20
2.472499999999999
 11
2.905515229696792
 21
2.2525
  0
MTEXT
  5
8D
100
AcDbEntity
  8
2 prize
  6
CONTINUOUS
 62
    0
370
   -2
100
AcDbMText
 10
2.771239640864215
 20
2.459927857925749
 30
0
 40
0.1
 41
0.4111111111111111
 71
    5
 72
    1
  1
0.4400
  7
standard
210
0
220
0
230
1
 50
330.0000000000001
 73
    2
 44
1
  0
SOLID
  5
8E
100
AcDbEntity
  8
2 prize
  6
ByBlock
 62
    0
370
   -2
100
AcDbTrace
 10
2.524464052031639
 20
2.472499999999999
 30
0
 11
2.619392285565539
 21
2.436920523553479
 31
0
 12
2.602740899254626
 22
2.408079476446519
 32
0
 13
2.602740899254626
 23
2.408079476446519
 33
0
  0
SOLID
  5
8F
100
AcDbEntity
  8
2 prize
  6
ByBlock
 62
    0
370
   -2
100
AcDbTrace
 10
2.905515229696792
 20
2.2525
 30
0
 11
2.810586996162891
 21
2.28807947644652
 31
0
 12
2.827238382473805
 22
2.316920523553479
 32
0
 13
2.827238382473805
 23
2.316920523553479
 33
0
  0
ENDBLK
  5
65
330
63
100
AcDbEntity
  8
0
100
AcDbBlockEnd
  0
ENDSEC
  0
SECTION
  2
ENTITIES
  0
LINE
  5
90
100
AcDbEntity
  8
0 ref
  6
ByLayer
 62
  256
370
   -1
100
AcDbLine
 10
0
 20
0
 11
2.424871130596428
 21
1.4
  0
LINE
  5
91
100
AcDbEntity
  8
0 ref
  6
ByLayer
 62
  256
370
   -1
100
AcDbLine
 10
0
 20
0
 11
3.464101615137755
 21
-2
  0
LINE
  5
92
100
AcDbEntity
  8
0 ref
  6
ByLayer
 62
  256
370
   -1
100
AcDbLine
 10
3.464101615137755
 20
-2
 11
5.888972745734183
 21
-0.6000000000000001
  0
LINE
  5
93
100
AcDbEntity
  8
0 ref
  6
ByLayer
 62
  256
370
   -1
100
AcDbLine
 10
2.424871130596428
 20
1.4
 11
5.888972745734183
 21
-0.6000000000000001
  0
LINE
  5
94
100
AcDbEntity
  8
0 ref
  6
ByLayer
 62
  256
370
   -1
100
AcDbLine
 10
2.424871130596428
 20
1.4
 11
2.424871130596428
 21
3.899999999999999
  0
LINE
  5
95
100
AcDbEntity
  8
0 ref
  6
ByLayer
 62
  256
370
   -1
100
AcDbLine
 10
0
 20
0
 11
1.530808498934192e-16
 21
2.5
  0
LINE
  5
96
100
AcDbEntity
  8
0 ref
  6
ByLayer
 62
  256
370
   -1
100
AcDbLine
 10
5.888972745734183
 20
-0.6000000000000001
 11
5.888972745734183
 21
1.9
  0
LINE
  5
97
100
AcDbEntity
  8
1 cab
  6
ByLayer
 62
  256
370
   -1
100
AcDbLine
 10
2.667358243656071
 20
0.6599999999999998
 11
2.182384017536785
 21
0.6599999999999998
  0
LINE
  5
98
100
AcDbEntity
  8
1 cab
  6
ByLayer
 62
  256
370
   -1
100
AcDbLine
 10
2.424871130596428
 20
1.4
 11
2.424871130596428
 21
2.3
  0
LINE
  5
99
100
AcDbEntity
  8
1 cab
  6
ByLayer
 62
  256
370
   -1
100
AcDbLine
 10
1.662768775266122
 20
0.9599999999999997
 11
1.662768775266122
 21
1.86
  0
LINE
  5
9A
100
AcDbEntity
  8
1 cab
  6
ByLayer
 62
  256
370
   -1
100
AcDbLine
 10
2.667358243656071
 20
0.6599999999999998
 11
2.667358243656071
 21
1.56
  0
LINE
  5
9B
100
AcDbEntity
  8
1 cab
  6
ByLayer
 62
  256
370
   -1
100
AcDbLine
 10
2.182384017536785
 20
0.6599999999999998
 11
2.182384017536785
 21
1.56
  0
LINE
  5
9C
100
AcDbEntity
  8
1 cab
  6
ByLayer
 62
  256
370
   -1
100
AcDbLine
 10
1.662768775266122
 20
1.86
 11
2.424871130596428
 21
2.3
  0
LINE
  5
9D
100
AcDbEntity
  8
1 cab
  6
ByLayer
 62
  256
370
   -1
100
AcDbLine
 10
2.424871130596428
 20
2.3
 11
3.186973485926734
 21
1.86
  0
LINE
  5
9E
100
AcDbEntity
  8
1 cab
  6
ByLayer
 62
  256
370
   -1
100
AcDbLine
 10
3.186973485926734
 20
1.86
 11
2.667358243656071
 21
1.56
  0
LINE
  5
9F
100
AcDbEntity
  8
1 cab
  6
ByLayer
 62
  256
370
   -1
100
AcDbLine
 10
2.667358243656071
 20
1.56
 11
2.182384017536785
 21
1.56
  0
LINE
  5
A0
100
AcDbEntity
  8
1 cab
  6
ByLayer
 62
  256
370
   -1
100
AcDbLine
 10
2.182384017536785
 20
1.56
 11
1.662768775266122
 21
1.86
  0
LINE
  5
A1
100
AcDbEntity
  8
1 cab
  6
ByLayer
 62
  256
370
   -1
100
AcDbLine
 10
2.182384017536785
 20
0.6599999999999998
 11
1.662768775266122
 21
0.3599999999999999
  0
LINE
  5
A2
100
AcDbEntity
  8
1 cab
  6
ByLayer
 62
  256
370
   -1
100
AcDbLine
 10
2.182384017536785
 20
1.56
 11
1.662768775266122
 21
1.26
  0
LINE
  5
A3
100
AcDbEntity
  8
1 cab
  6
ByLayer
 62
  256
370
   -1
100
AcDbLine
 10
1.662768775266122
 20
1.86
 11
1.143153532995459
 21
1.56
  0
LINE
  5
A4
100
AcDbEntity
  8
1 cab
  6
ByLayer
 62
  256
370
   -1
100
AcDbLine
 10
1.662768775266122
 20
1.26
 11
1.143153532995459
 21
0.9599999999999999
  0
LINE
  5
A5
100
AcDbEntity
  8
1 cab
  6
ByLayer
 62
  256
370
   -1
100
AcDbLine
 10
1.143153532995459
 20
1.56
 11
0.6235382907247957
 21
1.26
  0
LINE
  5
A6
100
AcDbEntity
  8
1 cab
  6
ByLayer
 62
  256
370
   -1
100
AcDbLine
 10
1.662768775266122
 20
0.3599999999999999
 11
1.143153532995459
 21
0.05999999999999994
  0
LINE
  5
A7
100
AcDbEntity
  8
1 cab
  6
ByLayer
 62
  256
370
   -1
100
AcDbLine
 10
1.662768775266122
 20
0.3599999999999999
 11
1.662768775266122
 21
1.26
  0
LINE
  5
A8
100
AcDbEntity
  8
1 cab
  6
ByLayer
 62
  256
370
   -1
100
AcDbLine
 10
1.143153532995459
 20
0.05999999999999994
 11
1.143153532995459
 21
0.96
  0
LINE
  5
A9
100
AcDbEntity
  8
1 cab
  6
ByLayer
 62
  256
370
   -1
100
AcDbLine
 10
0.6235382907247957
 20
0.3599999999999999
 11
0.6235382907247957
 21
1.26
  0
LINE
  5
AA
100
AcDbEntity
  8
1 cab
  6
ByLayer
 62
  256
370
   -1
100
AcDbLine
 10
1.143153532995459
 20
0.05999999999999994
 11
0.6235382907247957
 21
0.3599999999999999
  0
LINE
  5
AB
100
AcDbEntity
  8
1 cab
  6
ByLayer
 62
  256
370
   -1
100
AcDbLine
 10
0.6235382907247957
 20
0.3599999999999999
 11
0.6235382907247957
 21
1.26
  0
LINE
  5
AC
100
AcDbEntity
  8
1 cab
  6
ByLayer
 62
  256
370
   -1
100
AcDbLine
 10
0.6235382907247957
 20
1.26
 11
1.143153532995459
 21
0.9599999999999999
  0
LINE
  5
AD
100
AcDbEntity
  8
1 cab
  6
ByLayer
 62
  256
370
   -1
100
AcDbLine
 10
2.667358243656071
 20
0.6599999999999998
 11
3.013768405169847
 21
0.4599999999999999
  0
LINE
  5
AE
100
AcDbEntity
  8
1 cab
  6
ByLayer
 62
  256
370
   -1
100
AcDbLine
 10
3.186973485926734
 20
1.86
 11
3.53338364744051
 21
1.66
  0
LINE
  5
AF
100
AcDbEntity
  8
1 cab
  6
ByLayer
 62
  256
370
   -1
100
AcDbLine
 10
2.667358243656071
 20
1.56
 11
3.013768405169847
 21
1.36
  0
LINE
  5
B0
100
AcDbEntity
  8
1 cab
  6
ByLayer
 62
  256
370
   -1
100
AcDbLine
 10
3.013768405169847
 20
0.4599999999999999
 11
3.53338364744051
 21
0.1599999999999999
  0
LINE
  5
B1
100
AcDbEntity
  8
1 cab
  6
ByLayer
 62
  256
370
   -1
100
AcDbLine
 10
3.53338364744051
 20
1.66
 11
4.052998889711173
 21
1.36
  0
LINE
  5
B2
100
AcDbEntity
  8
1 cab
  6
ByLayer
 62
  256
370
   -1
100
AcDbLine
 10
3.013768405169847
 20
1.36
 11
3.53338364744051
 21
1.06
  0
LINE
  5
B3
100
AcDbEntity
  8
1 cab
  6
ByLayer
 62
  256
370
   -1
100
AcDbLine
 10
4.052998889711173
 20
1.36
 11
4.745819212738724
 21
0.96
  0
LINE
  5
B4
100
AcDbEntity
  8
1 cab
  6
ByLayer
 62
  256
370
   -1
100
AcDbLine
 10
3.53338364744051
 20
1.06
 11
4.226203970468061
 21
0.6600000000000001
  0
LINE
  5
B5
100
AcDbEntity
  8
1 cab
  6
ByLayer
 62
  256
370
   -1
100
AcDbLine
 10
3.53338364744051
 20
0.1599999999999999
 11
4.226203970468061
 21
-0.24
  0
LINE
  5
B6
100
AcDbEntity
  8
1 cab
  6
ByLayer
 62
  256
370
   -1
100
AcDbLine
 10
4.745819212738724
 20
0.96
 11
5.265434455009387
 21
0.66
  0
LINE
  5
B7
100
AcDbEntity
  8
1 cab
  6
ByLayer
 62
  256
370
   -1
100
AcDbLine
 10
4.226203970468061
 20
0.6600000000000001
 11
4.745819212738724
 21
0.3600000000000002
  0
LINE
  5
B8
100
AcDbEntity
  8
1 cab
  6
ByLayer
 62
  256
370
   -1
100
AcDbLine
 10
4.226203970468061
 20
-0.24
 11
4.745819212738724
 21
-0.54
  0
LINE
  5
B9
100
AcDbEntity
  8
1 cab
  6
ByLayer
 62
  256
370
   -1
100
AcDbLine
 10
3.013768405169847
 20
0.4599999999999999
 11
3.013768405169847
 21
1.36
  0
LINE
  5
BA
100
AcDbEntity
  8
1 cab
  6
ByLayer
 62
  256
370
   -1
100
AcDbLine
 10
3.53338364744051
 20
0.1599999999999999
 11
3.53338364744051
 21
1.06
  0
LINE
  5
BB
100
AcDbEntity
  8
1 cab
  6
ByLayer
 62
  256
370
   -1
100
AcDbLine
 10
4.226203970468061
 20
-0.24
 11
4.226203970468061
 21
0.6599999999999999
  0
LINE
  5
BC
100
AcDbEntity
  8
1 cab
  6
ByLayer
 62
  256
370
   -1
100
AcDbLine
 10
3.013768405169847
 20
1.36
 11
3.53338364744051
 21
1.66
  0
LINE
  5
BD
100
AcDbEntity
  8
1 cab
  6
ByLayer
 62
  256
370
   -1
100
AcDbLine
 10
3.53338364744051
 20
1.06
 11
4.052998889711173
 21
1.36
  0
LINE
  5
BE
100
AcDbEntity
  8
1 cab
  6
ByLayer
 62
  256
370
   -1
100
AcDbLine
 10
4.226203970468061
 20
0.6600000000000001
 11
4.745819212738724
 21
0.96
  0
LINE
  5
BF
100
AcDbEntity
  8
1 cab
  6
ByLayer
 62
  256
370
   -1
100
AcDbLine
 10
4.745819212738724
 20
0.3600000000000002
 11
5.265434455009387
 21
0.66
  0
LINE
  5
C0
100
AcDbEntity
  8
1 cab
  6
ByLayer
 62
  256
370
   -1
100
AcDbLine
 10
5.265434455009387
 20
0.66
 11
4.745819212738724
 21
0.3600000000000002
  0
LINE
  5
C1
100
AcDbEntity
  8
1 cab
  6
ByLayer
 62
  256
370
   -1
100
AcDbLine
 10
4.745819212738724
 20
0.3600000000000002
 11
4.745819212738724
 21
-0.54
  0
LINE
  5
C2
100
AcDbEntity
  8
1 cab
  6
ByLayer
 62
  256
370
   -1
100
AcDbLine
 10
4.745819212738724
 20
-0.54
 11
5.265434455009387
 21
-0.84
  0
LINE
  5
C3
100
AcDbEntity
  8
1 cab
  6
ByLayer
 62
  256
370
   -1
100
AcDbLine
 10
4.745819212738724
 20
0.3600000000000002
 11
5.265434455009387
 21
0.06000000000000028
  0
LINE
  5
C4
100
AcDbEntity
  8
1 cab
  6
ByLayer
 62
  256
370
   -1
100
AcDbLine
 10
5.265434455009387
 20
0.66
 11
5.78504969728005
 21
0.3600000000000001
  0
LINE
  5
C5
100
AcDbEntity
  8
1 cab
  6
ByLayer
 62
  256
370
   -1
100
AcDbLine
 10
5.265434455009387
 20
0.06000000000000028
 11
5.78504969728005
 21
0.3600000000000001
  0
LINE
  5
C6
100
AcDbEntity
  8
1 cab
  6
ByLayer
 62
  256
370
   -1
100
AcDbLine
 10
5.78504969728005
 20
0.3600000000000001
 11
5.78504969728005
 21
-0.54
  0
LINE
  5
C7
100
AcDbEntity
  8
1 cab
  6
ByLayer
 62
  256
370
   -1
100
AcDbLine
 10
5.78504969728005
 20
-0.54
 11
5.265434455009387
 21
-0.84
  0
LINE
  5
C8
100
AcDbEntity
  8
1 cab
  6
ByLayer
 62
  256
370
   -1
100
AcDbLine
 10
5.265434455009387
 20
-0.84
 11
5.265434455009387
 21
0.06000000000000028
  0
LINE
  5
C9
100
AcDbEntity
  8
1 cab
  6
ByLayer
 62
  256
370
   -1
100
AcDbLine
 10
1.662768775266122
 20
1.26
 11
1.143153532995459
 21
1.56
  0
LINE
  5
CA
100
AcDbEntity
  8
1 cab
  6
ByLayer
 62
  256
370
   -1
100
AcDbLine
 10
5.78504969728005
 20
0.9600000000000001
 11
5.78504969728005
 21
1.56
  0
LINE
  5
CB
100
AcDbEntity
  8
1 cab
  6
ByLayer
 62
  256
370
   -1
100
AcDbLine
 10
2.424871130596428
 20
2.9
 11
2.424871130596428
 21
3.5
  0
LINE
  5
CC
100
AcDbEntity
  8
1 cab
  6
ByLayer
 62
  256
370
   -1
100
AcDbLine
 10
3.53338364744051
 20
1.66
 11
3.013768405169847
 21
1.96
  0
LINE
  5
CD
100
AcDbEntity
  8
1 cab
  6
ByLayer
 62
  256
370
   -1
100
AcDbLine
 10
5.78504969728005
 20
0.9600000000000001
 11
5.464620297879807
 21
0.7750000000000001
  0
LINE
  5
CE
100
AcDbEntity
  8
1 cab
  6
ByLayer
 62
  256
370
   -1
100
AcDbLine
 10
5.78504969728005
 20
1.56
 11
5.464620297879807
 21
1.375
  0
LINE
  5
CF
100
AcDbEntity
  8
1 cab
  6
ByLayer
 62
  256
370
   -1
100
AcDbLine
 10
5.265434455009387
 20
1.86
 11
4.945005055609144
 21
1.675
  0
LINE
  5
D0
100
AcDbEntity
  8
1 cab
  6
ByLayer
 62
  256
370
   -1
100
AcDbLine
 10
4.745819212738724
 20
2.16
 11
4.425389813338481
 21
1.975
  0
LINE
  5
D1
100
AcDbEntity
  8
1 cab
  6
ByLayer
 62
  256
370
   -1
100
AcDbLine
 10
4.052998889711173
 20
2.56
 11
3.73256949031093
 21
2.375
  0
LINE
  5
D2
100
AcDbEntity
  8
1 cab
  6
ByLayer
 62
  256
370
   -1
100
AcDbLine
 10
3.53338364744051
 20
2.86
 11
3.212954248040267
 21
2.675
  0
LINE
  5
D3
100
AcDbEntity
  8
1 cab
  6
ByLayer
 62
  256
370
   -1
100
AcDbLine
 10
3.013768405169847
 20
3.16
 11
3.53338364744051
 21
2.86
  0
LINE
  5
D4
100
AcDbEntity
  8
1 cab
  6
ByLayer
 62
  256
370
   -1
100
AcDbLine
 10
3.53338364744051
 20
2.86
 11
4.052998889711173
 21
2.56
  0
LINE
  5
D5
100
AcDbEntity
  8
1 cab
  6
ByLayer
 62
  256
370
   -1
100
AcDbLine
 10
4.052998889711173
 20
2.56
 11
4.745819212738724
 21
2.16
  0
LINE
  5
D6
100
AcDbEntity
  8
1 cab
  6
ByLayer
 62
  256
370
   -1
100
AcDbLine
 10
4.745819212738724
 20
2.16
 11
5.265434455009387
 21
1.86
  0
LINE
  5
D7
100
AcDbEntity
  8
1 cab
  6
ByLayer
 62
  256
370
   -1
100
AcDbLine
 10
5.265434455009387
 20
1.86
 11
5.78504969728005
 21
1.56
  0
LINE
  5
D8
100
AcDbEntity
  8
1 cab
  6
ByLayer
 62
  256
370
   -1
100
AcDbLine
 10
2.693339005769604
 20
2.375
 11
3.212954248040267
 21
2.075
  0
LINE
  5
D9
100
AcDbEntity
  8
1 cab
  6
ByLayer
 62
  256
370
   -1
100
AcDbLine
 10
3.212954248040267
 20
2.075
 11
3.73256949031093
 21
1.775
  0
LINE
  5
DA
100
AcDbEntity
  8
1 cab
  6
ByLayer
 62
  256
370
   -1
100
AcDbLine
 10
3.73256949031093
 20
1.775
 11
4.425389813338481
 21
1.375
  0
LINE
  5
DB
100
AcDbEntity
  8
1 cab
  6
ByLayer
 62
  256
370
   -1
100
AcDbLine
 10
4.425389813338481
 20
1.375
 11
4.945005055609144
 21
1.075
  0
LINE
  5
DC
100
AcDbEntity
  8
1 cab
  6
ByLayer
 62
  256
370
   -1
100
AcDbLine
 10
4.945005055609144
 20
1.075
 11
5.464620297879807
 21
0.7750000000000001
  0
LINE
  5
DD
100
AcDbEntity
  8
1 cab
  6
ByLayer
 62
  256
370
   -1
100
AcDbLine
 10
5.464620297879807
 20
1.375
 11
4.945005055609144
 21
1.675
  0
LINE
  5
DE
100
AcDbEntity
  8
1 cab
  6
ByLayer
 62
  256
370
   -1
100
AcDbLine
 10
4.945005055609144
 20
1.675
 11
4.425389813338481
 21
1.975
  0
LINE
  5
DF
100
AcDbEntity
  8
1 cab
  6
ByLayer
 62
  256
370
   -1
100
AcDbLine
 10
4.425389813338481
 20
1.975
 11
3.73256949031093
 21
2.375
  0
LINE
  5
E0
100
AcDbEntity
  8
1 cab
  6
ByLayer
 62
  256
370
   -1
100
AcDbLine
 10
3.73256949031093
 20
2.375
 11
3.212954248040267
 21
2.675
  0
LINE
  5
E1
100
AcDbEntity
  8
1 cab
  6
ByLayer
 62
  256
370
   -1
100
AcDbLine
 10
3.013768405169847
 20
3.16
 11
2.693339005769604
 21
2.975
  0
LINE
  5
E2
100
AcDbEntity
  8
1 cab
  6
ByLayer
 62
  256
370
   -1
100
AcDbLine
 10
3.212954248040267
 20
2.675
 11
2.693339005769604
 21
2.975
  0
LINE
  5
E3
100
AcDbEntity
  8
1 cab
  6
ByLayer
 62
  256
370
   -1
100
AcDbLine
 10
5.464620297879807
 20
0.7750000000000001
 11
5.464620297879807
 21
1.375
  0
LINE
  5
E4
100
AcDbEntity
  8
1 cab
  6
ByLayer
 62
  256
370
   -1
100
AcDbLine
 10
2.693339005769604
 20
2.375
 11
2.693339005769604
 21
2.975
  0
LINE
  5
E5
100
AcDbEntity
  8
1 cab
  6
ByLayer
 62
  256
370
   -1
100
AcDbLine
 10
3.212954248040267
 20
2.075
 11
3.212954248040267
 21
2.675
  0
LINE
  5
E6
100
AcDbEntity
  8
1 cab
  6
ByLayer
 62
  256
370
   -1
100
AcDbLine
 10
3.73256949031093
 20
1.775
 11
3.73256949031093
 21
2.375
  0
LINE
  5
E7
100
AcDbEntity
  8
1 cab
  6
ByLayer
 62
  256
370
   -1
100
AcDbLine
 10
4.425389813338481
 20
1.375
 11
4.425389813338481
 21
1.975
  0
LINE
  5
E8
100
AcDbEntity
  8
1 cab
  6
ByLayer
 62
  256
370
   -1
100
AcDbLine
 10
4.945005055609144
 20
1.075
 11
4.945005055609144
 21
1.675
  0
LINE
  5
E9
100
AcDbEntity
  8
1 cab
  6
ByLayer
 62
  256
370
   -1
100
AcDbLine
 10
3.013768405169847
 20
2.56
 11
3.53338364744051
 21
2.26
  0
LINE
  5
EA
100
AcDbEntity
  8
1 cab
  6
ByLayer
 62
  256
370
   -1
100
AcDbLine
 10
3.53338364744051
 20
2.26
 11
4.052998889711173
 21
1.96
  0
LINE
  5
EB
100
AcDbEntity
  8
1 cab
  6
ByLayer
 62
  256
370
   -1
100
AcDbLine
 10
4.052998889711173
 20
1.96
 11
4.745819212738724
 21
1.56
  0
ELLIPSE
  5
EC
100
AcDbEntity
  8
1 cab
  6
ByLayer
 62
  256
370
   -1
100
AcDbEllipse
 10
4.745819212738724
 20
0.6600000000000001
 30
0
 11
-0.3674234614174766
 21
-6.106226635438361e-16
 31
0
 40
0.5773502691896255
 41
0
 42
6.283185307179586
  0
ELLIPSE
  5
ED
100
AcDbEntity
  8
1 cab
  6
ByLayer
 62
  256
370
   -1
100
AcDbEllipse
 10
3.533383647440509
 20
1.36
 30
0
 11
-0.367423461417476
 21
0
 31
0
 40
0.5773502691896265
 41
0
 42
6.283185307179586
  0
LINE
  5
EE
100
AcDbEntity
  8
0.1 ref 2
  6
ByLayer
 62
  256
370
   -1
100
AcDbLine
 10
4.399409051224948
 20
1.16
 11
4.399409051224948
 21
1.36
  0
LINE
  5
EF
100
AcDbEntity
  8
0.1 ref 2
  6
ByLayer
 62
  256
370
   -1
100
AcDbLine
 10
1.143153532995459
 20
1.56
 11
1.143153532995459
 21
1.76
  0
LINE
  5
F0
100
AcDbEntity
  8
0.1 ref 2
  6
ByLayer
 62
  256
370
   -1
100
AcDbLine
 10
2.805922308261581
 20
2.08
 11
2.805922308261581
 21
2.28
  0
LINE
  5
F1
100
AcDbEntity
  8
0.1 ref 2
  6
ByLayer
 62
  256
370
   -1
100
AcDbLine
 10
5.005626833874055
 20
2.01
 11
5.005626833874055
 21
1.41
  0
LINE
  5
F2
100
AcDbEntity
  8
0.1 ref 2
  6
ByLayer
 62
  256
370
   -1
100
AcDbLine
 10
4.745819212738724
 20
1.86
 11
5.265434455009387
 21
1.56
  0
LINE
  5
F3
100
AcDbEntity
  8
0.1 ref 2
  6
ByLayer
 62
  256
370
   -1
100
AcDbLine
 10
5.005626833874055
 20
-0.09000000000000008
 11
5.005626833874055
 21
0.1099999999999999
  0
LINE
  5
F4
100
AcDbEntity
  8
0.1 ref 2
  6
ByLayer
 62
  256
370
   -1
100
AcDbLine
 10
0.6235382907247957
 20
0.3599999999999999
 11
0.4503332099679079
 21
0.2599999999999999
  0
LINE
  5
F5
100
AcDbEntity
  8
0.1 ref 2
  6
ByLayer
 62
  256
370
   -1
100
AcDbLine
 10
0.4503332099679079
 20
0.2599999999999999
 11
0.4503332099679079
 21
0.4599999999999999
  0
CIRCLE
  5
F6
100
AcDbEntity
  8
2 prize
  6
ByLayer
 62
  256
370
   -1
100
AcDbCircle
 10
0.4503332099679079
 20
0.4599999999999999
 40
0.05
  0
CIRCLE
  5
F7
100
AcDbEntity
  8
2 prize
  6
ByLayer
 62
  256
370
   -1
100
AcDbCircle
 10
1.143153532995459
 20
1.76
 40
0.05
  0
CIRCLE
  5
F8
100
AcDbEntity
  8
2 prize
  6
ByLayer
 62
  256
370
   -1
100
AcDbCircle
 10
2.805922308261581
 20
2.28
 40
0.05
  0
CIRCLE
  5
F9
100
AcDbEntity
  8
2 prize
  6
ByLayer
 62
  256
370
   -1
100
AcDbCircle
 10
4.399409051224948
 20
1.36
 40
0.05
  0
CIRCLE
  5
FA
100
AcDbEntity
  8
2 prize
  6
ByLayer
 62
  256
370
   -1
100
AcDbCircle
 10
5.005626833874055
 20
1.71
 40
0.05
  0
CIRCLE
  5
FB
100
AcDbEntity
  8
2 prize
  6
ByLayer
 62
  256
370
   -1
100
AcDbCircle
 10
5.005626833874055
 20
0.1099999999999999
 40
0.05
  0
LINE
  5
FC
100
AcDbEntity
  8
0.1 ref 2
  6
ByLayer
 62
  256
370
   -1
100
AcDbLine
 10
1.143153532995459
 20
0.6599999999999998
 11
1.143153532995459
 21
0.8599999999999999
  0
CIRCLE
  5
FD
100
AcDbEntity
  8
0.1 ref 2
  6
ByLayer
 62
  256
370
   -1
100
AcDbCircle
 10
1.143153532995459
 20
0.8599999999999999
 40
0.05
  0
DIMENSION
  5
FE
100
AcDbEntity
  8
2 prize
  6
ByLayer
 62
  256
370
   -1
100
AcDbDimension
  2
*D1
 10
2.905515229696792
 20
2.2525
 30
0
 11
2.771239640864215
 21
2.459927857925749
 31
0
 70
   33
 71
    5
  3
Standard
 53
0
210
0
220
0
230
1
100
AcDbAlignedDimension
 13
2.424871130596428
 23
2.3
 33
0
 14
2.805922308261581
 24
2.08
 34
0
  0
DIMENSION
  5
FF
100
AcDbEntity
  8
2 prize
  6
ByLayer
 62
  256
370
   -1
100
AcDbDimension
  2
*D2
 10
4.499001972660158
 20
1.3325
 30
0
 11
3.567983012345898
 21
1.999927857925749
 31
0
 70
   33
 71
    5
  3
Standard
 53
0
210
0
220
0
230
1
100
AcDbAlignedDimension
 13
2.424871130596428
 23
2.3
 33
0
 14
4.399409051224948
 24
1.16
 34
0
  0
DIMENSION
  5
100
100
AcDbEntity
  8
2 prize
  6
ByLayer
 62
  256
370
   -1
100
AcDbDimension
  2
*D3
 10
2.294967320028762
 20
2.975
 30
0
 11
3.641595171667576
 21
2.327427857925749
 31
0
 70
   33
 71
    5
  3
Standard
 53
0
210
0
220
0
230
1
100
AcDbAlignedDimension
 13
5.005626833874055
 23
1.71
 33
0
 14
2.424871130596428
 24
3.2
 34
0
  0
DIMENSION
  5
101
100
AcDbEntity
  8
2 prize
  6
ByLayer
 62
  256
370
   -1
100
AcDbDimension
  2
*D4
 10
4.940674928590223
 20
-0.2025000000000001
 30
0
 11
3.706547076951409
 21
0.6399278579257491
 31
0
 70
   33
 71
    5
  3
Standard
 53
0
210
0
220
0
230
1
100
AcDbAlignedDimension
 13
2.424871130596428
 23
1.4
 33
0
 14
5.005626833874055
 24
-0.09000000000000008
 34
0
  0
DIMENSION
  5
102
100
AcDbEntity
  8
2 prize
  6
ByLayer
 62
  256
370
   -1
100
AcDbDimension
  2
*D5
 10
1.099852262806237
 20
0.7349999999999999
 30
0
 11
1.684461061606722
 21
1.202427857925749
 31
0
 70
   33
 71
    5
  3
Standard
 53
0
210
0
220
0
230
1
100
AcDbAlignedDimension
 13
2.424871130596428
 23
1.4
 33
0
 14
1.143153532995459
 24
0.6599999999999998
 34
0
  0
DIMENSION
  5
103
100
AcDbEntity
  8
2 prize
  6
ByLayer
 62
  256
370
   -1
100
AcDbDimension
  2
*D6
 10
2.316617955123374
 20
2.4875
 30
0
 11
1.619509156322889
 21
2.214927857925749
 31
0
 70
   33
 71
    5
  3
Standard
 53
0
210
0
220
0
230
1
100
AcDbAlignedDimension
 13
1.143153532995459
 23
1.56
 33
0
 14
2.424871130596428
 24
2.3
 34
0
  0
DIMENSION
  5
104
100
AcDbEntity
  8
2 prize
  6
ByLayer
 62
  256
370
   -1
100
AcDbDimension
  2
*D7
 10
0.3512306695894641
 20
0.431650635094611
 30
0
 11
1.282249629903724
 21
1.09907849302036
 31
0
 70
   33
 71
    5
  3
Standard
 53
0
210
0
220
0
230
1
100
AcDbAlignedDimension
 13
2.424871130596428
 23
1.4
 33
0
 14
0.4503332099679079
 24
0.2599999999999999
 34
0
  0
CIRCLE
  5
105
100
AcDbEntity
  8
2 prize
  6
ByLayer
 62
  256
370
   -1
100
AcDbCircle
 10
1.143153532995459
 20
0.8599999999999999
 40
0.05
  0
ENDSEC
  0
SECTION
  2
OBJECTS
  0
DICTIONARY
  5
C
330
0
100
AcDbDictionary
281
    1
  3
ACAD_GROUP
350
D
  0
DICTIONARY
  5
D
330
C
100
AcDbDictionary
281
    1
  0
PLOTSETTINGS
  5
106
100
AcDbPlotSettings
  6
1x1
 40
0
 41
0
 42
0
 43
0
  0
ENDSEC
  0
EOF
